<!-- icon666.com - MILLIONS vector ICONS FREE --><svg viewBox="0 -48 370.00003 370" xmlns="http://www.w3.org/2000/svg"><path d="m370 37.167969v200.6875c-.011719 20.429687-16.570312 36.988281-37 37h-296c-8.433594.011719-16.617188-2.871094-23.179688-8.167969-3.347656-2.695312-6.207031-5.945312-8.445312-9.613281-3.523438-5.789063-5.3828125-12.441407-5.375-19.21875v-200.550781l161.144531 136.449218c13.804688 11.691406 34.042969 11.683594 47.839844-.015625zm0 0" fill="#e48e66"></path><path d="m370 37v.167969l-161.015625 136.566406c-13.796875 11.699219-34.035156 11.707031-47.839844.019531l-161.144531-136.449218v-.304688c0-20.433594 16.566406-37 37-37h296c20.433594 0 37 16.566406 37 37zm0 0" fill="#f8ec7d"></path><g fill="#af593c"><path d="m364.605469 257.105469c-2.238281 3.664062-5.097657 6.914062-8.453125 9.597656-.410156-.25-.785156-.554687-1.117188-.898437l-92.59375-94.210938c-2.457031-2.558594-2.402344-6.617188.128906-9.105469 2.527344-2.484375 6.585938-2.476562 9.101563.023438l92.59375 94.210937c.121094.121094.234375.253906.339844.382813zm0 0"></path><path d="m107.042969 171.578125-92.085938 94.183594c-.339843.351562-.722656.664062-1.136719.925781-3.347656-2.695312-6.207031-5.945312-8.445312-9.613281.097656-.128907.210938-.238281.324219-.359375l92.082031-94.183594c1.609375-1.683594 4-2.375 6.261719-1.804688 2.257812.566407 4.039062 2.304688 4.660156 4.550782s-.015625 4.652344-1.660156 6.300781zm0 0"></path></g></svg>