<!-- icon666.com - MILLIONS vector ICONS FREE --><svg id="icons" enable-background="new 0 0 64 64" viewBox="0 0 64 64" xmlns="http://www.w3.org/2000/svg"><path d="m44 5h-24c-2.76 0-5 2.24-5 5v1 44.002 2c0 3.3 2.7 6 6 6h11 11c3.3 0 6-2.7 6-6v-2-44.002-1c0-2.76-2.24-5-5-5z" fill="#545c66"></path><path d="m44 .998h-24c-2.76 0-5 2.24-5 5v1 44 2c0 3.3 2.7 6 6 6h11 11c3.3 0 6-2.7 6-6v-2-44-1c0-2.76-2.24-5-5-5z" fill="#656d78"></path><path d="m15 6.998h34v44h-34z" fill="#e6e9ed"></path><path d="m32 52.998c1.1 0 2 .9 2 2 0 1.11-.9 2-2 2s-2-.89-2-2c0-1.1.9-2 2-2z" fill="#aab2bd"></path><circle cx="32" cy="24.002" fill="#5d9cec" r="13"></circle><path d="m38 40.002c1.65 0 3 1.35 3 3 0 1.66-1.35 3-3 3-1.66 0-3-1.34-3-3 0-1.65 1.34-3 3-3z" fill="#a0d468"></path><path d="m26 40.002c1.65 0 3 1.35 3 3 0 1.66-1.35 3-3 3-1.66 0-3-1.34-3-3 0-1.65 1.34-3 3-3z" fill="#ed5565"></path><path d="m37 24.002c0 2.05-1.24 3.81-3 4.58v.01c-.61.26-1.29.41-2 .41s-1.38-.15-1.99-.41c-1.77-.77-3.01-2.54-3.01-4.59v-2l2-1s1 1 3 1 3-1 3-1l2 1z" fill="#eac6bb"></path><path d="m35 21.002-.002.002v2.998c0 2.05-1.24 3.81-3 4.58v.01c-.315.134-.649.236-.997.306.323.066.655.104.999.104.71 0 1.39-.15 2-.41v-.01c1.76-.771 3-2.53 3-4.58v-2z" fill="#d3b1a9"></path><path d="m34 32.002v-1h2c1.66 0 3 1.35 3 3v.95c-2.02 1.3-4.42 2.05-7 2.05s-4.979-.75-7-2.04v-.01-.95c0-1.65 1.34-3 3-3h2v1l2-1z" fill="#e6e9ed"></path><path d="m36 31.002h-2c1.659.001 2.998 1.351 2.998 3v1.994c.699-.293 1.371-.638 2.002-1.044v-.95c0-1.65-1.34-3-3-3z" fill="#ccd1d9"></path><path d="m32 29.002c.71 0 1.39-.15 2-.41v2.41 1l-2-1-2 1v-1-2.39l.01-.021c.61.261 1.28.411 1.99.411z" fill="#fff"></path><path d="m35 21.002s-1 1-3 1-3-1-3-1l-2 1v-2c0-2.21 1.79-4 4-4h4v2c1.1 0 2 .89 2 2v2z" fill="#844747"></path><path d="m37 22.002v-2c0-1.11-.9-2-2-2v-2h-2v2c0 1.104.896 2 2 2v1z" fill="#773e3e"></path><path d="m43 60h-22c-3.859 0-7-3.141-7-7 0-.553.447-1 1-1s1 .447 1 1c0 2.757 2.243 5 5 5h22c2.757 0 5-2.243 5-5 0-.553.447-1 1-1s1 .447 1 1c0 3.859-3.141 7-7 7z"></path><path d="m29.03 5c-.553 0-1.005-.447-1.005-1s.442-1 .994-1h.011c.552 0 1 .447 1 1s-.448 1-1 1z"></path><path d="m35 5h-3c-.553 0-1-.447-1-1s.447-1 1-1h3c.553 0 1 .447 1 1s-.447 1-1 1z"></path><path d="m49 7.002c-.553 0-1-.447-1-1 0-2.206-1.794-4-4-4-.553 0-1-.447-1-1s.447-1 1-1c3.309 0 6 2.691 6 6 0 .553-.447 1-1 1z"></path><path d="m15 7c-.553 0-1-.447-1-1 0-3.309 2.691-6 6-6 .553 0 1 .447 1 1s-.447 1-1 1c-2.206 0-4 1.794-4 4 0 .553-.447 1-1 1z"></path><path d="m44 2h-24c-.553 0-1-.447-1-1s.447-1 1-1h24c.553 0 1 .447 1 1s-.447 1-1 1z"></path><path d="m49 8.002h-34c-.553 0-1-.447-1-1s.447-1 1-1h34c.553 0 1 .447 1 1s-.447 1-1 1z"></path><path d="m43 64h-22c-3.859 0-7-3.141-7-7v-51c0-.553.447-1 1-1s1 .447 1 1v51c0 2.757 2.243 5 5 5h22c2.757 0 5-2.243 5-5v-50.998c0-.553.447-1 1-1s1 .447 1 1v50.998c0 3.859-3.141 7-7 7z"></path><path d="m49 52h-34c-.553 0-1-.447-1-1s.447-1 1-1h34c.553 0 1 .447 1 1s-.447 1-1 1z"></path><path d="m32 58c-1.654 0-3-1.346-3-3s1.346-3 3-3 3 1.346 3 3-1.346 3-3 3zm0-4c-.552 0-1 .448-1 1s.448 1 1 1 1-.448 1-1-.448-1-1-1z"></path><path d="m32 38.002c-7.72 0-14-6.28-14-14s6.28-14 14-14 14 6.28 14 14-6.28 14-14 14zm0-26c-6.617 0-12 5.383-12 12s5.383 12 12 12 12-5.383 12-12-5.383-12-12-12z"></path><path d="m32 29.994c-3.309 0-6-2.69-6-5.998 0-.553.447-1 1-1s1 .447 1 1c0 2.204 1.794 3.998 4 3.998s4-1.794 4-3.998c0-.553.447-1 1-1s1 .447 1 1c0 3.308-2.691 5.998-6 5.998z"></path><path d="m27 20.998c-.553 0-1-.447-1-1 0-2.757 2.243-5 5-5 .553 0 1 .447 1 1s-.447 1-1 1c-1.654 0-3 1.346-3 3 0 .553-.447 1-1 1z"></path><path d="m35 16.998h-4c-.553 0-1-.447-1-1s.447-1 1-1h4c.553 0 1 .447 1 1s-.447 1-1 1z"></path><path d="m35 18.997c-.553 0-1-.447-1-1v-1.999c0-.553.447-1 1-1s1 .447 1 1v1.999c0 .553-.447 1-1 1z"></path><path d="m37 20.992c-.553 0-1-.447-1-1 0-.549-.447-.996-.996-.996-.553 0-1-.447-1-1s.447-1 1-1c1.652 0 2.996 1.344 2.996 2.996 0 .553-.447 1-1 1z"></path><path d="m27 24.992c-.553 0-1-.447-1-1v-3.994c0-.553.447-1 1-1s1 .447 1 1v3.994c0 .553-.447 1-1 1z"></path><path d="m37 24.996c-.553 0-1-.447-1-1v-4.004c0-.553.447-1 1-1s1 .447 1 1v4.004c0 .553-.447 1-1 1z"></path><path d="m27.001 22.999c-.367 0-.72-.202-.896-.553-.247-.494-.047-1.095.447-1.342l2-1c.493-.246 1.094-.047 1.342.447.247.494.047 1.095-.447 1.342l-2 1c-.143.072-.296.106-.446.106z"></path><path d="m32 22.997c-2.346 0-3.574-1.158-3.706-1.29-.392-.391-.392-1.023-.002-1.414.387-.389 1.014-.393 1.404-.012.049.045.804.716 2.304.716 1.518 0 2.271-.691 2.303-.721.397-.375 1.028-.365 1.408.026.381.392.383 1.01-.003 1.396-.132.134-1.36 1.299-3.708 1.299z"></path><path d="m36.999 22.994c-.15 0-.303-.034-.446-.105l-2-1.001c-.494-.247-.694-.849-.447-1.342.248-.494.848-.692 1.342-.447l2 1.001c.494.247.694.849.447 1.342-.176.35-.529.552-.896.552z"></path><path d="m30.001 33.001c-.553 0-1-.447-1-1v-3.396c0-.553.447-1 1-1s1 .447 1 1v3.396c0 .553-.447 1-1 1z"></path><path d="m30.002 33.001c-.367 0-.72-.202-.896-.553-.247-.494-.047-1.095.447-1.342l1.999-1c.494-.246 1.094-.047 1.342.447.247.494.047 1.095-.447 1.342l-1.999 1c-.143.072-.296.106-.446.106z"></path><path d="m33.999 33.001c-.15 0-.303-.034-.446-.105l-2-1c-.494-.247-.694-.848-.447-1.342s.848-.693 1.342-.447l2 1c.494.247.694.848.447 1.342-.176.35-.529.552-.896.552z"></path><path d="m34 33.001c-.553 0-1-.447-1-1v-3.424c0-.553.447-1 1-1s1 .447 1 1v3.424c0 .553-.447 1-1 1z"></path><path d="m30.001 32.001h-2c-.553 0-1-.447-1-1s.447-1 1-1h2c.553 0 1 .447 1 1s-.447 1-1 1z"></path><path d="m25.001 35.001c-.553 0-1-.447-1-1 0-2.206 1.794-4 4-4 .553 0 1 .447 1 1s-.447 1-1 1c-1.103 0-2 .897-2 2 0 .553-.447 1-1 1z"></path><path d="m25.001 35.957c-.553 0-1-.447-1-1v-.956c0-.553.447-1 1-1s1 .447 1 1v.956c0 .553-.447 1-1 1z"></path><path d="m36 32.001h-2c-.553 0-1-.447-1-1s.447-1 1-1h2c.553 0 1 .447 1 1s-.447 1-1 1z"></path><path d="m39 35.001c-.553 0-1-.447-1-1 0-1.103-.897-2-2-2-.553 0-1-.447-1-1s.447-1 1-1c2.206 0 4 1.794 4 4 0 .553-.447 1-1 1z"></path><path d="m39 35.957c-.553 0-1-.447-1-1v-.956c0-.553.447-1 1-1s1 .447 1 1v.956c0 .553-.447 1-1 1z"></path><path d="m26.001 47c-2.206 0-4-1.794-4-4s1.794-4 4-4 4 1.794 4 4-1.794 4-4 4zm0-6c-1.103 0-2 .897-2 2s.897 2 2 2 2-.897 2-2-.897-2-2-2z"></path><path d="m38 47c-2.206 0-4-1.794-4-4s1.794-4 4-4 4 1.794 4 4-1.794 4-4 4zm0-6c-1.103 0-2 .897-2 2s.897 2 2 2 2-.897 2-2-.897-2-2-2z"></path></svg>